<svg width="60" height="60" viewBox="0 0 60 60" fill="none" xmlns="http://www.w3.org/2000/svg">
<path d="M29.9998 60C29.5026 60 29.0256 59.8025 28.674 59.4508C28.3224 59.0992 28.1248 58.6223 28.1248 58.125V53.2762L25.7023 55.7025C25.3503 56.0541 24.8729 56.2514 24.3754 56.251C23.8778 56.2507 23.4008 56.0527 23.0492 55.7006C22.6976 55.3486 22.5003 54.8712 22.5007 54.3737C22.501 53.8761 22.699 53.3991 23.0511 53.0475L28.1248 47.9738V33.2475L15.3748 40.6088L13.5148 47.5462C13.3855 48.0266 13.0707 48.436 12.6396 48.6842C12.2085 48.9325 11.6965 48.9993 11.2161 48.87C10.7357 48.7407 10.3264 48.4259 10.0781 47.9948C9.82987 47.5637 9.76304 47.0516 9.89233 46.5712L10.7811 43.2637L6.58108 45.6862C6.15066 45.931 5.64092 45.9955 5.16309 45.8658C4.68526 45.736 4.27814 45.4226 4.03057 44.9938C3.783 44.565 3.71508 44.0557 3.84164 43.577C3.96819 43.0983 4.27895 42.6892 4.70608 42.4388L8.90608 40.0162L5.59108 39.1275C5.35323 39.0635 5.13031 38.9532 4.93506 38.8031C4.73981 38.6529 4.57604 38.4657 4.45312 38.2523C4.3302 38.0388 4.25053 37.8032 4.21865 37.559C4.18677 37.3147 4.20331 37.0666 4.26733 36.8288C4.33135 36.5909 4.4416 36.368 4.59177 36.1727C4.74194 35.9775 4.92909 35.8137 5.14255 35.6908C5.35601 35.5679 5.59159 35.4882 5.83584 35.4563C6.08009 35.4244 6.32823 35.441 6.56608 35.505L13.4961 37.3613L26.2498 30L13.4998 22.6388L6.56233 24.495C6.08509 24.6139 5.58021 24.5406 5.15653 24.2908C4.73286 24.041 4.42431 23.6347 4.29739 23.1595C4.17048 22.6843 4.23536 22.1782 4.47806 21.7505C4.72076 21.3227 5.12183 21.0073 5.59483 20.8725L8.90608 19.9837L4.70608 17.5613C4.49112 17.439 4.30246 17.2755 4.15096 17.0801C3.99945 16.8846 3.8881 16.6612 3.82332 16.4225C3.75853 16.1839 3.74158 15.9348 3.77345 15.6896C3.80533 15.4444 3.88539 15.2079 4.00903 14.9938C4.13267 14.7796 4.29744 14.592 4.49387 14.4418C4.6903 14.2916 4.9145 14.1818 5.15356 14.1186C5.39262 14.0554 5.64182 14.0401 5.88682 14.0736C6.13181 14.1071 6.36776 14.1887 6.58108 14.3137L10.7811 16.7362L9.89233 13.425C9.8241 13.1857 9.8042 12.9351 9.83378 12.688C9.86337 12.4409 9.94185 12.2022 10.0647 11.9857C10.1875 11.7693 10.3521 11.5794 10.549 11.4273C10.746 11.2751 10.9712 11.1637 11.2117 11.0994C11.4521 11.0352 11.7029 11.0195 11.9495 11.0532C12.1961 11.0869 12.4335 11.1694 12.6479 11.2958C12.8622 11.4222 13.0493 11.59 13.1981 11.7895C13.347 11.9889 13.4546 12.216 13.5148 12.4575L15.3711 19.3913L28.1248 26.7525V12.0262L23.0511 6.9525C22.8768 6.77842 22.7384 6.5717 22.644 6.34416C22.5495 6.11661 22.5008 5.87269 22.5007 5.62633C22.5005 5.37996 22.5488 5.13597 22.643 4.90829C22.7371 4.68062 22.8751 4.4737 23.0492 4.29938C23.2233 4.12505 23.43 3.98671 23.6576 3.89227C23.8851 3.79783 24.129 3.74913 24.3754 3.74896C24.6217 3.74878 24.8657 3.79714 25.0934 3.89125C25.3211 3.98537 25.528 4.12342 25.7023 4.2975L28.1248 6.72375V1.875C28.1248 1.37772 28.3224 0.900806 28.674 0.549175C29.0256 0.197544 29.5026 0 29.9998 0C30.4971 0 30.974 0.197544 31.3257 0.549175C31.6773 0.900806 31.8748 1.37772 31.8748 1.875V6.72375L34.3011 4.2975C34.6532 3.94592 35.1305 3.74861 35.628 3.74896C36.1256 3.74931 36.6026 3.9473 36.9542 4.29938C37.3058 4.65145 37.5031 5.12877 37.5028 5.62633C37.5024 6.12388 37.3044 6.60092 36.9523 6.9525L31.8748 12.0262V26.7525L44.6248 19.3913L46.4848 12.4538C46.6141 11.9734 46.929 11.564 47.3601 11.3158C47.7912 11.0675 48.3032 11.0007 48.7836 11.13C49.264 11.2593 49.6733 11.5741 49.9215 12.0052C50.1698 12.4363 50.2366 12.9484 50.1073 13.4288L49.2223 16.7362L53.4223 14.3137C53.8528 14.069 54.3625 14.0045 54.8403 14.1342C55.3182 14.2639 55.7253 14.5774 55.9728 15.0062C56.2204 15.435 56.2883 15.9443 56.1618 16.423C56.0352 16.9017 55.7245 17.3108 55.2973 17.5613L51.0973 19.9837L54.4086 20.8725C54.889 21.0018 55.2983 21.3166 55.5465 21.7477C55.7948 22.1788 55.8616 22.6909 55.7323 23.1712C55.603 23.6516 55.2882 24.061 54.8571 24.3092C54.426 24.5575 53.914 24.6243 53.4336 24.495L46.5036 22.6388L33.7498 30L46.4998 37.3613L53.4336 35.505C53.914 35.3762 54.4258 35.4435 54.8566 35.6921C55.2873 35.9407 55.6017 36.3503 55.7305 36.8306C55.8593 37.311 55.7919 37.8229 55.5433 38.2536C55.2947 38.6844 54.8852 38.9987 54.4048 39.1275L51.0936 40.0162L55.2936 42.4388C55.7207 42.6892 56.0315 43.0983 56.158 43.577C56.2846 44.0557 56.2167 44.565 55.9691 44.9938C55.7215 45.4226 55.3144 45.736 54.8366 45.8658C54.3588 45.9955 53.849 45.931 53.4186 45.6862L49.2186 43.2637L50.1036 46.575C50.1718 46.8143 50.1917 47.0649 50.1621 47.312C50.1325 47.5591 50.0541 47.7978 49.9313 48.0143C49.8085 48.2307 49.6438 48.4206 49.4469 48.5727C49.2499 48.7249 49.0247 48.8363 48.7842 48.9006C48.5438 48.9648 48.293 48.9805 48.0464 48.9468C47.7998 48.9131 47.5624 48.8306 47.3481 48.7042C47.1337 48.5778 46.9466 48.41 46.7978 48.2105C46.6489 48.0111 46.5413 47.784 46.4811 47.5425L44.6248 40.6088L31.8748 33.2475V47.9738L36.9486 53.0475C37.3007 53.3991 37.4986 53.8761 37.499 54.3737C37.4994 54.8712 37.302 55.3486 36.9505 55.7006C36.5989 56.0527 36.1218 56.2507 35.6243 56.251C35.1267 56.2514 34.6494 56.0541 34.2973 55.7025L31.8711 53.2762V58.125C31.8711 58.6223 31.6735 59.0992 31.3219 59.4508C30.9703 59.8025 30.4934 60 29.9961 60H29.9998Z" fill="white"/>
</svg>
