<svg width="300" height="300" viewBox="0 0 300 300" fill="none" xmlns="http://www.w3.org/2000/svg">
<path d="M24.15 7.35C24.15 7.85 24.0833 8.33333 23.95 8.8C23.8167 9.26666 23.5833 9.68333 23.25 10.05C23.1167 10.25 22.8833 10.5167 22.55 10.85C22.2167 11.15 21.7667 11.5833 21.2 12.15C19.8 13.3167 18.4667 14.55 17.2 15.85C15.9667 17.15 14.7667 18.5167 13.6 19.95C13.2 20.4167 12.8 20.9 12.4 21.4C12 21.9 11.6833 22.4167 11.45 22.95C11.2167 23.4833 11.1 24.05 11.1 24.65C11.1333 25.25 11.3833 25.8667 11.85 26.5C12.6833 27.6667 13.5667 28.7833 14.5 29.85C15.4333 30.9167 16.4333 31.9667 17.5 33C18.1333 33.6667 18.7667 34.3167 19.4 34.95C20.0667 35.5833 20.7 36.2167 21.3 36.85C22.1 37.65 22.5833 38.5 22.75 39.4C22.9167 40.2667 22.8333 41.0333 22.5 41.7C22.1667 42.3667 21.6167 42.85 20.85 43.15C20.1167 43.45 19.2333 43.4 18.2 43C17.6667 42.7667 17.15 42.45 16.65 42.05C16.15 41.6833 15.6667 41.2667 15.2 40.8C14.7333 40.3 14.2833 39.8 13.85 39.3C13.4167 38.8 13.0167 38.3333 12.65 37.9C6.38333 31 3.25 26.4333 3.25 24.2C3.25 22.5 4.46667 20.0333 6.9 16.8C7.83333 15.6333 8.86667 14.4167 10 13.15C11.1333 11.85 12.4 10.5667 13.8 9.3C14.6667 8.43333 15.55 7.58333 16.45 6.75C17.3833 5.88333 18.4 5.15 19.5 4.55C19.9667 4.31667 20.4667 4.21666 21 4.25C21.5667 4.25 22.0833 4.38333 22.55 4.65C23.0167 4.88333 23.4 5.23333 23.7 5.7C24 6.16667 24.15 6.71667 24.15 7.35Z" fill="white"/>
<path d="M31.85 7.35C31.85 7.85 31.9167 8.33333 32.05 8.8C32.1833 9.26666 32.4167 9.68333 32.75 10.05C32.8833 10.25 33.1167 10.5167 33.45 10.85C33.7833 11.15 34.2333 11.5833 34.8 12.15C36.2 13.3167 37.5333 14.55 38.8 15.85C40.0333 17.15 41.2333 18.5167 42.4 19.95C42.8 20.4167 43.2 20.9 43.6 21.4C44 21.9 44.3167 22.4167 44.55 22.95C44.7833 23.4833 44.9 24.05 44.9 24.65C44.8667 25.25 44.6167 25.8667 44.15 26.5C43.3167 27.6667 42.4333 28.7833 41.5 29.85C40.5667 30.9167 39.5667 31.9667 38.5 33C37.8667 33.6667 37.2333 34.3167 36.6 34.95C35.9333 35.5833 35.3 36.2167 34.7 36.85C33.9 37.65 33.4167 38.5 33.25 39.4C33.0833 40.2667 33.1667 41.0333 33.5 41.7C33.8333 42.3667 34.3833 42.85 35.15 43.15C35.8833 43.45 36.7667 43.4 37.8 43C38.3333 42.7667 38.85 42.45 39.35 42.05C39.85 41.6833 40.3333 41.2667 40.8 40.8C41.2667 40.3 41.7167 39.8 42.15 39.3C42.5833 38.8 42.9833 38.3333 43.35 37.9C49.6167 31 52.75 26.4333 52.75 24.2C52.75 22.5 51.5333 20.0333 49.1 16.8C48.1667 15.6333 47.1333 14.4167 46 13.15C44.8667 11.85 43.6 10.5667 42.2 9.3C41.3333 8.43333 40.45 7.58333 39.55 6.75C38.6167 5.88333 37.6 5.15 36.5 4.55C36.0333 4.31667 35.5333 4.21666 35 4.25C34.4333 4.25 33.9167 4.38333 33.45 4.65C32.9833 4.88333 32.6 5.23333 32.3 5.7C32 6.16667 31.85 6.71667 31.85 7.35Z" fill="white"/>
<path d="M8 79C12.4183 79 16 75.4183 16 71C16 66.5817 12.4183 63 8 63C3.58172 63 0 66.5817 0 71C0 75.4183 3.58172 79 8 79Z" fill="white"/>
<path d="M42 79C46.4183 79 50 75.4183 50 71C50 66.5817 46.4183 63 42 63C37.5817 63 34 66.5817 34 71C34 75.4183 37.5817 79 42 79Z" stroke="white" stroke-width="7"/>
</svg>
