<svg width="42" height="42" viewBox="0 0 42 42" fill="none" xmlns="http://www.w3.org/2000/svg">
<g filter="url(#filter0_d_973_278)">
<circle cx="20" cy="20" r="17" fill="white"/>
</g>
<path d="M24.0423 26.2H16.0538C14.9499 26.2 14.0481 25.2982 14.0481 24.1943V16.2058C14.0481 15.1019 14.9499 14.2 16.0538 14.2H24.0423C25.1462 14.2 26.0481 15.1019 26.0481 16.2058V24.1943C26.0481 25.3031 25.1512 26.2 24.0423 26.2Z" fill="#666666"/>
<path d="M20.0505 23.2825C19.2275 23.2825 18.4538 22.9622 17.8723 22.3807C17.2908 21.7992 16.9705 21.0255 16.9705 20.2025C16.9705 19.3795 17.2908 18.6057 17.8723 18.0242C18.4538 17.4427 19.2275 17.1224 20.0505 17.1224C20.8735 17.1224 21.6473 17.4427 22.2288 18.0242C22.8103 18.6057 23.1306 19.3795 23.1306 20.2025C23.1306 21.0255 22.8103 21.7992 22.2288 22.3807C21.6423 22.9622 20.8735 23.2825 20.0505 23.2825ZM20.0505 17.7778C18.715 17.7778 17.6259 18.862 17.6259 20.2025C17.6259 21.538 18.7101 22.6271 20.0505 22.6271C21.3861 22.6271 22.4752 21.5429 22.4752 20.2025C22.4703 18.8669 21.3861 17.7778 20.0505 17.7778Z" fill="white"/>
<path d="M23.7308 17.0212C24.0574 17.0212 24.3222 16.7564 24.3222 16.4298C24.3222 16.1032 24.0574 15.8384 23.7308 15.8384C23.4042 15.8384 23.1394 16.1032 23.1394 16.4298C23.1394 16.7564 23.4042 17.0212 23.7308 17.0212Z" fill="white"/>
<defs>
<filter id="filter0_d_973_278" x="0" y="0" width="42" height="42" filterUnits="userSpaceOnUse" color-interpolation-filters="sRGB">
<feFlood flood-opacity="0" result="BackgroundImageFix"/>
<feColorMatrix in="SourceAlpha" type="matrix" values="0 0 0 0 0 0 0 0 0 0 0 0 0 0 0 0 0 0 127 0" result="hardAlpha"/>
<feOffset dx="1" dy="1"/>
<feGaussianBlur stdDeviation="2"/>
<feComposite in2="hardAlpha" operator="out"/>
<feColorMatrix type="matrix" values="0 0 0 0 0 0 0 0 0 0 0 0 0 0 0 0 0 0 0.25 0"/>
<feBlend mode="normal" in2="BackgroundImageFix" result="effect1_dropShadow_973_278"/>
<feBlend mode="normal" in="SourceGraphic" in2="effect1_dropShadow_973_278" result="shape"/>
</filter>
</defs>
</svg>
