<svg width="42" height="42" viewBox="0 0 42 42" fill="none" xmlns="http://www.w3.org/2000/svg">
<g filter="url(#filter0_d_973_290)">
<circle cx="20" cy="20" r="17" fill="white"/>
</g>
<path d="M16.2833 17.8038H13.3579V27.1326H16.2833V17.8038Z" fill="#666666"/>
<path d="M24.1966 17.6015C24.0888 17.588 23.9742 17.5813 23.8596 17.5746C22.2217 17.5072 21.2982 18.4778 20.9747 18.8957C20.8871 19.0103 20.8466 19.0777 20.8466 19.0777V17.8307H18.0493V27.1596H20.8466H20.9747C20.9747 26.2091 20.9747 25.2655 20.9747 24.3151C20.9747 23.8028 20.9747 23.2905 20.9747 22.7782C20.9747 22.1446 20.9275 21.4706 21.2443 20.8909C21.5139 20.4056 21.9992 20.1629 22.5452 20.1629C24.1629 20.1629 24.1966 21.6256 24.1966 21.7604C24.1966 21.7672 24.1966 21.7739 24.1966 21.7739V27.2H27.122V21.1133C27.122 19.0305 26.0638 17.8037 24.1966 17.6015Z" fill="#666666"/>
<path d="M14.8207 16.5972C15.7588 16.5972 16.5193 15.8367 16.5193 14.8986C16.5193 13.9605 15.7588 13.2 14.8207 13.2C13.8826 13.2 13.1221 13.9605 13.1221 14.8986C13.1221 15.8367 13.8826 16.5972 14.8207 16.5972Z" fill="#666666"/>
<defs>
<filter id="filter0_d_973_290" x="0" y="0" width="42" height="42" filterUnits="userSpaceOnUse" color-interpolation-filters="sRGB">
<feFlood flood-opacity="0" result="BackgroundImageFix"/>
<feColorMatrix in="SourceAlpha" type="matrix" values="0 0 0 0 0 0 0 0 0 0 0 0 0 0 0 0 0 0 127 0" result="hardAlpha"/>
<feOffset dx="1" dy="1"/>
<feGaussianBlur stdDeviation="2"/>
<feComposite in2="hardAlpha" operator="out"/>
<feColorMatrix type="matrix" values="0 0 0 0 0 0 0 0 0 0 0 0 0 0 0 0 0 0 0.25 0"/>
<feBlend mode="normal" in2="BackgroundImageFix" result="effect1_dropShadow_973_290"/>
<feBlend mode="normal" in="SourceGraphic" in2="effect1_dropShadow_973_290" result="shape"/>
</filter>
</defs>
</svg>
