<svg width="20" height="20" viewBox="0 0 20 20" fill="none" xmlns="http://www.w3.org/2000/svg">
<path fill-rule="evenodd" clip-rule="evenodd" d="M5 8.125C3.96447 8.125 3.125 8.96447 3.125 10C3.125 11.0355 3.96447 11.875 5 11.875C6.03553 11.875 6.875 11.0355 6.875 10C6.875 8.96447 6.03553 8.125 5 8.125ZM1.875 10C1.875 8.27411 3.27411 6.875 5 6.875C6.72589 6.875 8.125 8.27411 8.125 10C8.125 11.7259 6.72589 13.125 5 13.125C3.27411 13.125 1.875 11.7259 1.875 10Z" fill="white"/>
<path fill-rule="evenodd" clip-rule="evenodd" d="M13.75 13.75C12.7145 13.75 11.875 14.5895 11.875 15.625C11.875 16.6605 12.7145 17.5 13.75 17.5C14.7855 17.5 15.625 16.6605 15.625 15.625C15.625 14.5895 14.7855 13.75 13.75 13.75ZM10.625 15.625C10.625 13.8991 12.0241 12.5 13.75 12.5C15.4759 12.5 16.875 13.8991 16.875 15.625C16.875 17.3509 15.4759 18.75 13.75 18.75C12.0241 18.75 10.625 17.3509 10.625 15.625Z" fill="white"/>
<path fill-rule="evenodd" clip-rule="evenodd" d="M13.75 2.5C12.7145 2.5 11.875 3.33947 11.875 4.375C11.875 5.41053 12.7145 6.25 13.75 6.25C14.7855 6.25 15.625 5.41053 15.625 4.375C15.625 3.33947 14.7855 2.5 13.75 2.5ZM10.625 4.375C10.625 2.64911 12.0241 1.25 13.75 1.25C15.4759 1.25 16.875 2.64911 16.875 4.375C16.875 6.10089 15.4759 7.5 13.75 7.5C12.0241 7.5 10.625 6.10089 10.625 4.375Z" fill="white"/>
<path fill-rule="evenodd" clip-rule="evenodd" d="M12.1742 5.3887C12.3608 5.67908 12.2767 6.06577 11.9863 6.25237L7.43944 9.17425C7.14906 9.36085 6.76237 9.27672 6.57577 8.98633C6.38916 8.69595 6.47329 8.30926 6.76368 8.12266L11.3106 5.20078C11.6009 5.01418 11.9876 5.09831 12.1742 5.3887Z" fill="white"/>
<path fill-rule="evenodd" clip-rule="evenodd" d="M6.57577 11.0137C6.76237 10.7233 7.14906 10.6392 7.43944 10.8258L11.9863 13.7477C12.2767 13.9343 12.3608 14.3209 12.1742 14.6113C11.9876 14.9017 11.6009 14.9859 11.3106 14.7992L6.76368 11.8774C6.47329 11.6908 6.38916 11.3041 6.57577 11.0137Z" fill="white"/>
</svg>
