<svg width="42" height="42" viewBox="0 0 42 42" fill="none" xmlns="http://www.w3.org/2000/svg">
<g filter="url(#filter0_d_973_284)">
<circle cx="20" cy="20" r="17" fill="white"/>
</g>
<path d="M13.2466 24.552C14.7005 24.6361 15.9719 24.2869 17.2118 23.3622C15.9593 23.1424 15.0907 22.554 14.6187 21.3383C14.9837 21.2866 15.3047 21.3836 15.6824 21.2284C14.4487 20.6723 13.6494 19.8381 13.6179 18.3962C14.0082 18.4285 14.304 18.6936 14.7697 18.6548C13.6368 17.5168 13.2906 16.2752 14.0019 14.7686C15.1851 16.1653 16.5698 17.1158 18.2629 17.562C18.3573 17.5879 18.4454 17.6137 18.5398 17.6331C18.9741 17.7366 19.4902 17.9565 19.7545 17.9241C20.2077 17.8659 19.7545 17.3292 19.8678 16.6309C20.2266 14.4582 22.5554 13.4689 24.2799 14.7427C24.7834 15.1178 25.1799 15.1113 25.6772 14.885C25.9352 14.7686 26.1996 14.6522 26.508 14.5164C26.4387 15.1372 25.973 15.4799 25.6016 15.939C26.0233 16.036 26.3632 15.9131 26.7534 15.7838C26.6213 16.23 26.294 16.4822 25.9982 16.7279C25.6898 16.9801 25.5702 17.2452 25.5576 17.659C25.3688 23.9248 18.4391 28.768 13.6998 24.9141C13.2403 24.5391 13.6872 24.9141 13.2466 24.552Z" fill="#666666"/>
<defs>
<filter id="filter0_d_973_284" x="0" y="0" width="42" height="42" filterUnits="userSpaceOnUse" color-interpolation-filters="sRGB">
<feFlood flood-opacity="0" result="BackgroundImageFix"/>
<feColorMatrix in="SourceAlpha" type="matrix" values="0 0 0 0 0 0 0 0 0 0 0 0 0 0 0 0 0 0 127 0" result="hardAlpha"/>
<feOffset dx="1" dy="1"/>
<feGaussianBlur stdDeviation="2"/>
<feComposite in2="hardAlpha" operator="out"/>
<feColorMatrix type="matrix" values="0 0 0 0 0 0 0 0 0 0 0 0 0 0 0 0 0 0 0.25 0"/>
<feBlend mode="normal" in2="BackgroundImageFix" result="effect1_dropShadow_973_284"/>
<feBlend mode="normal" in="SourceGraphic" in2="effect1_dropShadow_973_284" result="shape"/>
</filter>
</defs>
</svg>
