<svg width="128" height="128" viewBox="0 0 128 128" fill="none" xmlns="http://www.w3.org/2000/svg">
<path d="M33.1834 81.9112C19.275 81.9112 8 70.6362 8 56.7278C8 42.8194 19.275 31.5444 33.1834 31.5444C36.1992 31.5444 39.0912 32.0745 41.7712 33.0466C47.059 20.1128 59.767 11 74.6035 11C94.1851 11 110.059 26.874 110.059 46.4556C110.059 47.3182 110.028 48.1737 109.968 49.0208C115.889 51.7474 120 57.7339 120 64.6805C120 74.1968 112.286 81.9112 102.769 81.9112H33.1834Z" fill="white"/>
<path d="M92.9547 95.7094L89.5152 88.5385L86.0756 95.7096C85.7343 96.3071 85.5389 97.0018 85.5389 97.7429C85.5389 99.9797 87.3192 101.793 89.5152 101.793C91.7113 101.793 93.4915 99.9797 93.4915 97.7429C93.4915 97.0017 93.296 96.307 92.9547 95.7094Z" fill="white"/>
<path d="M81.0259 110.29L77.5863 103.118L74.1469 110.289C73.8055 110.887 73.6099 111.581 73.6099 112.323C73.6099 114.56 75.3902 116.373 77.5862 116.373C79.7823 116.373 81.5626 114.56 81.5626 112.323C81.5626 111.582 81.3671 110.887 81.0259 110.29Z" fill="white"/>
<path d="M69.0968 95.7095L65.6572 88.5385L62.2177 95.7094C61.8764 96.307 61.6809 97.0017 61.6809 97.7429C61.6809 99.9797 63.4612 101.793 65.6572 101.793C67.8533 101.793 69.6336 99.9797 69.6336 97.7429C69.6336 97.0018 69.4381 96.3071 69.0968 95.7095Z" fill="white"/>
<path d="M57.8304 110.289L54.3909 103.118L50.9514 110.289C50.6101 110.887 50.4146 111.582 50.4146 112.323C50.4146 114.56 52.1949 116.373 54.391 116.373C56.587 116.373 58.3673 114.56 58.3673 112.323C58.3673 111.582 58.1718 110.887 57.8304 110.289Z" fill="white"/>
<path d="M45.9016 95.7097L42.462 88.5385L39.0226 95.7092C38.6812 96.3069 38.4856 97.0016 38.4856 97.7429C38.4856 99.9797 40.2659 101.793 42.462 101.793C44.658 101.793 46.4383 99.9797 46.4383 97.7429C46.4383 97.0018 46.2429 96.3073 45.9016 95.7097Z" fill="white"/>
<path d="M33.9725 110.289L30.533 103.118L27.0935 110.289C26.7521 110.887 26.5566 111.582 26.5566 112.323C26.5566 114.56 28.3369 116.373 30.533 116.373C32.729 116.373 34.5093 114.56 34.5093 112.323C34.5093 111.582 34.3138 110.887 33.9725 110.289Z" fill="white"/>
</svg>
