<svg width="128" height="128" viewBox="0 0 128 128" fill="none" xmlns="http://www.w3.org/2000/svg">
<path d="M89.2916 58.3905H82.2735C80.9695 58.3905 79.8148 59.2329 79.4167 60.4747L72.8768 80.876C72.2562 82.8121 73.7005 84.7918 75.7336 84.7918H79.3155C80.4605 84.7918 81.3717 85.7511 81.3129 86.8946L80.204 108.431C80.1763 108.969 80.9008 109.165 81.1476 108.686L96.5345 78.8757C97.5651 76.879 96.1156 74.4997 93.8686 74.4997H90.8735C89.5096 74.4997 88.5458 73.1644 88.9753 71.8699L92.139 62.3353C92.7833 60.3934 91.3376 58.3905 89.2916 58.3905Z" fill="white"/>
<path d="M98.1803 82.9112L100.241 78.9196C102.062 75.3909 99.5004 71.1862 95.5293 71.1862H92.6932L95.7252 62.0484C96.8639 58.6167 94.309 55.0769 90.6932 55.0769H81.5351C79.2305 55.0769 77.1899 56.5657 76.4864 58.7603L69.2978 81.1852C69.1122 81.7641 69.0311 82.3452 69.0418 82.9112L33.1834 82.9112C19.275 82.9112 8 71.6362 8 57.7278C8 43.8194 19.275 32.5444 33.1834 32.5444C36.1992 32.5444 39.0912 33.0745 41.7712 34.0466C47.059 21.1128 59.7671 12 74.6036 12C94.1852 12 110.059 27.874 110.059 47.4556C110.059 48.3182 110.028 49.1737 109.968 50.0208C115.889 52.7474 120 58.7339 120 65.6805C120 75.1967 112.285 82.9112 102.769 82.9112H98.1803Z" fill="white"/>
<path d="M68.4329 109.963L64.9938 102.793L61.5541 109.964C61.2129 110.562 61.0175 111.256 61.0175 111.997C61.0175 114.234 62.7978 116.047 64.9938 116.047C67.1899 116.047 68.9702 114.234 68.9702 111.997C68.9702 111.256 68.7745 110.561 68.4329 109.963Z" fill="white"/>
<path d="M56.5045 96.7098L53.0648 89.5385L49.6256 96.7088C49.2841 97.3066 49.0885 98.0015 49.0885 98.7429C49.0885 100.98 50.8687 102.793 53.0648 102.793C55.2609 102.793 57.0411 100.98 57.0411 98.7429C57.0411 98.0019 56.8457 97.3073 56.5045 96.7098Z" fill="white"/>
<path d="M44.5754 109.964L41.1359 102.793L37.6966 109.963C37.3551 110.561 37.1595 111.256 37.1595 111.997C37.1595 114.234 38.9398 116.047 41.1359 116.047C43.3319 116.047 45.1122 114.234 45.1122 111.997C45.1122 111.256 44.9167 110.561 44.5754 109.964Z" fill="white"/>
<path d="M32.6462 96.7091L29.2068 89.5385L25.7673 96.7095C25.4259 97.3071 25.2305 98.0017 25.2305 98.7429C25.2305 100.98 27.0107 102.793 29.2068 102.793C31.4029 102.793 33.1831 100.98 33.1831 98.7429C33.1831 98.0016 32.9876 97.3068 32.6462 96.7091Z" fill="white"/>
</svg>
